<svg id="图层_1" data-name="图层 1" xmlns="http://www.w3.org/2000/svg" viewBox="0 0 70 70"><defs><style>.cls-1{fill:;}.cls-2{fill:red;}</style></defs><path class="cls-1" d="M35.19,48.9h0a14.07,14.07,0,0,0,14-14V27.24a1.17,1.17,0,0,0-2-.83l-18.94,19a1.16,1.16,0,0,0,.26,1.85A13.86,13.86,0,0,0,35.19,48.9Z"/><path class="cls-1" d="M35.19,3.79h0a14.07,14.07,0,0,0-14,14v17a13.86,13.86,0,0,0,1,5.08L48.54,13.53A14.09,14.09,0,0,0,35.19,3.79Z"/><path class="cls-1" d="M18.19,38.18V33.05a2.48,2.48,0,1,0-5,0v5.13A21.74,21.74,0,0,0,15.09,47l3.84-3.85A16.84,16.84,0,0,1,18.19,38.18Z"/><path class="cls-1" d="M32.71,61.16v2a1.36,1.36,0,0,1-1.36,1.36H24.19a2.56,2.56,0,0,0-2.57,2.24,2.48,2.48,0,0,0,2.47,2.71H46.82a2.55,2.55,0,0,0,2.57-2.23,2.48,2.48,0,0,0-2.47-2.72H39a1.36,1.36,0,0,1-1.36-1.36v-2a1.36,1.36,0,0,1,1.14-1.34A22,22,0,0,0,57.13,38.18V34a2.54,2.54,0,0,0-2.23-2.57,2.47,2.47,0,0,0-2.72,2.46V37.9A17.18,17.18,0,0,1,35.77,55.17,17,17,0,0,1,24.9,51.7a2.38,2.38,0,0,0-3.14.18l-.15.15a2.36,2.36,0,0,0,.24,3.55,21.75,21.75,0,0,0,9.73,4.24A1.36,1.36,0,0,1,32.71,61.16Z"/><path d="M62.89.87a4.24,4.24,0,0,1,1,.13,2.25,2.25,0,0,0-3,.17L5.3,56.76l0,0L60,2.07A4,4,0,0,1,62.89.87Z"/><path class="cls-2" d="M5.3,60a2.26,2.26,0,0,0,3.21,0L64.11,4.38a2.28,2.28,0,0,0,0-3.21A1.57,1.57,0,0,0,63.9,1a4.24,4.24,0,0,0-1-.13A4,4,0,0,0,60,2.07L5.27,56.79A2.26,2.26,0,0,0,5.3,60Z"/></svg>