<svg id="图层_1" data-name="图层 1" xmlns="http://www.w3.org/2000/svg" viewBox="0 0 70 70"><path d="M44,35.13c0,7.63,0,15.26,0,22.9,0,4.9-3.82,8-8.42,7a7.1,7.1,0,0,1-3.58-2.13c-3.44-3.46-7-6.84-10.31-10.37A6.88,6.88,0,0,0,16,50.3c-3.36.11-6.69-.13-9.35-2.65a9.57,9.57,0,0,1-3.21-7c-.08-3.78-.11-7.57,0-11.36.16-5.27,4.24-9.68,9.5-9.36,4.85.3,8.11-1.53,11.14-5,2.62-3,5.63-5.6,8.52-8.34a6.67,6.67,0,0,1,11.1,3.3A12.08,12.08,0,0,1,44,13Z"/><path d="M66.65,35.45c-.25,6.42-2.16,12.15-6.48,16.95a13.32,13.32,0,0,1-1.37,1.34C57.31,55,55.88,55,54.86,54s-1-2.55.36-3.93a20.07,20.07,0,0,0,5.71-10.27,19.72,19.72,0,0,0-5.08-18.13c-.31-.33-.63-.64-.92-1A2.56,2.56,0,0,1,55,16.84c1.19-1.18,2.48-.83,3.61.16A21.87,21.87,0,0,1,63,22.32,26.93,26.93,0,0,1,66.65,35.45Z"/><path d="M56.08,35.46a14.87,14.87,0,0,1-4.42,10.92c-1.44,1.42-2.61,1.62-3.84.56s-1.3-2.51,0-3.88c4-4.22,4-11.25.13-15.2-1.44-1.46-1.33-3.06-.16-4.08s2.62-.76,4,.69A15.35,15.35,0,0,1,56.08,35.46Z"/></svg>