<svg id="图层_1" data-name="图层 1" xmlns="http://www.w3.org/2000/svg" viewBox="0 0 80 80"><defs><style>.cls-1{fill:#039ce2;}.cls-2{fill:#f9f2e8;}</style></defs><circle class="cls-1" cx="40" cy="40" r="39.04"/><rect class="cls-2" x="14.35" y="57.94" width="51.3" height="7.25"/><path class="cls-2" d="M29.42,42.82,30.3,42a2.44,2.44,0,0,1,3.35-.08A7.35,7.35,0,0,1,34.75,43a2.39,2.39,0,0,1-.14,3.23c-.84.91-.84.91-1.71,0Z"/><path class="cls-2" d="M36.51,57.12c-.12-.38-.43-.4-.76-.4-1.61,0-3.23,0-4.84,0-.4,0-.59-.09-.52-.51a1.23,1.23,0,0,0-.53-1.28c-.16-.11-.27-.29-.43-.41a.81.81,0,0,1-.3-.73,22,22,0,0,0,0-2.57,2.25,2.25,0,0,1,1-2.34,1.07,1.07,0,0,1,.8-.23,2.29,2.29,0,0,0,1.67-.43c.25-.17.23-.27,0-.48l-4-4.07a2.27,2.27,0,0,0-.71,2,.93.93,0,0,1-.26.79c-1.84,2-3.66,4.07-5.48,6.1a1.17,1.17,0,0,0-.44.9,1,1,0,0,1-.4.88,4.83,4.83,0,0,0-.44.46,1.86,1.86,0,0,0,1.58,3.12H35.63a2.68,2.68,0,0,0,.4,0A.58.58,0,0,0,36.51,57.12ZM27.75,54.4a4.43,4.43,0,0,1-.49.48,1.37,1.37,0,0,0-.6,1.4c.06.34-.07.46-.43.45-1.25,0-2.5,0-3.75,0a.74.74,0,0,1-.8-.44c-.14-.33.07-.57.29-.78s.64-.77,1.27-.68c.3,0,.56-.23.79-.44l3.51-3.12.38-.32v3.12A.45.45,0,0,1,27.75,54.4Z"/><path class="cls-2" d="M28.5,21.41a11.5,11.5,0,0,1,23,0C51.6,27.6,46.15,32.87,40,32.82A11.45,11.45,0,0,1,28.5,21.41Z"/><path class="cls-2" d="M45.86,36.21c-3.78-.17-7.59-.16-11.38,0A14.27,14.27,0,0,0,20.8,47.39c-.64,3-.79,4.48-.22,5.42a2.94,2.94,0,0,1,.67-1.07l2-2.26,3.39-3.78a3.47,3.47,0,0,1,1-2.83l-.06-.07,1.22-1.16.6-.57A3.8,3.8,0,0,1,32,40a3.74,3.74,0,0,1,2.45.94,9.15,9.15,0,0,1,1.28,1.3,3.65,3.65,0,0,1-.2,4.86,2.83,2.83,0,0,1-1.49,1.07,1.58,1.58,0,0,1-.71,1.07,3.56,3.56,0,0,1-2.08.68l-.39,0h0c-.37.25-.54.49-.47,1.18a18.22,18.22,0,0,1,0,2.21c0,.13,0,.25,0,.38l.17.18.06.07a2.67,2.67,0,0,1,.85,1c2.79,0,5.59-.06,8.39-.09,4.18,0,8.37.06,12.55,0a14.33,14.33,0,0,0,5.81-1.1,2.33,2.33,0,0,0,1.54-2.17A14.68,14.68,0,0,0,45.86,36.21Z"/></svg>