<?xml version="1.0" standalone="no"?><!DOCTYPE svg PUBLIC "-//W3C//DTD SVG 1.1//EN" "http://www.w3.org/Graphics/SVG/1.1/DTD/svg11.dtd"><svg t="1656415413688" class="icon" viewBox="0 0 1024 1024" version="1.1" xmlns="http://www.w3.org/2000/svg" p-id="53384" xmlns:xlink="http://www.w3.org/1999/xlink" width="200" height="200"><defs><style type="text/css">@font-face { font-family: feedback-iconfont; src: url("//at.alicdn.com/t/font_1031158_u69w8yhxdu.woff2?t=1630033759944") format("woff2"), url("//at.alicdn.com/t/font_1031158_u69w8yhxdu.woff?t=1630033759944") format("woff"), url("//at.alicdn.com/t/font_1031158_u69w8yhxdu.ttf?t=1630033759944") format("truetype"); }
</style></defs><path d="M109.381818 109.381818a31.976727 31.976727 0 0 1 45.242182 0L914.618182 869.376a31.976727 31.976727 0 1 1-45.242182 45.242182L109.381818 154.624a31.976727 31.976727 0 0 1 0-45.242182z m21.271273 131.630546l537.925818 537.879272c-5.632 1.908364-11.682909 2.978909-17.966545 2.978909H130.001455a55.994182 55.994182 0 0 1-55.994182-56.040727V297.006545c0-30.952727 25.088-55.994182 55.994182-55.994181h0.651636z m519.959273 0c30.952727 0 55.994182 25.041455 55.994181 55.994181v160.581819l198.702546-141.870546a28.020364 28.020364 0 0 1 43.938909 18.385455l0.325818 4.421818v346.298182a28.020364 28.020364 0 0 1-40.494545 25.134545l-3.770182-2.327273-198.749091-141.963636v30.626909L351.325091 241.012364h299.333818z" fill="" p-id="53385"></path></svg>