<svg id="图层_1" data-name="图层 1" xmlns="http://www.w3.org/2000/svg" viewBox="0 0 70 70"><defs><style>.cls-1{fill:;}.cls-2{fill:none;stroke:#ed1c24;stroke-linecap:round;stroke-miterlimit:10;stroke-width:7.9px;}</style></defs><path class="cls-1" d="M55.72,23l5.39-3.19A6.08,6.08,0,0,1,70,25.35V45.29a6.08,6.08,0,0,1-9,5.51l-5.28-3.29Z"/><path class="cls-1" d="M67.23,3c-1.59-1.07-3.48-.75-5.29,1Q33,32.79,4.13,61.54c-1.9,1.89-2,3.79-.53,5.39,1.68,1.78,3.78,1.76,5.75-.15Q12.74,63.5,16,60.11a3.12,3.12,0,0,1,2.49-1c4.31,0,8.61-.05,12.92-.09,2.11,0,4.24.08,6.34-.07,7.32-.54,14.2-7.18,14.36-16s.15-10.61.17-16.61a3.8,3.8,0,0,1,1.13-3.17q7-6.93,14-13.93C69.5,7,69.39,4.47,67.23,3Z"/><path class="cls-1" d="M41.8,12.69a23,23,0,0,0-5.71-1.16c-1.35-.07-14.58-.32-20,0C8.05,12.05.83,19.32.81,27.42s0,9,0,10.1S.46,46.72,3,50.88c1.61,2.61,2.42,2.71,4.65.5Q21.12,38,34.56,24.65c2.69-2.67,5.47-5.26,8.12-8C44.37,15,44,13.52,41.8,12.69Z"/><line class="cls-2" x1="65.64" y1="5.48" x2="6.7" y2="64.42"/></svg>