<svg id="图层_1" data-name="图层 1" xmlns="http://www.w3.org/2000/svg" viewBox="0 0 70 70"><path d="M59.91,22.8a5.7,5.7,0,0,0-1.71-4.18,7.56,7.56,0,0,0-4.91-2.22,4.72,4.72,0,0,1-4.52-3.64,7.1,7.1,0,0,0-2.72-3.69c-1-.71-2.13-.62-3.21-.91H26.93c-1.54.22-3,.49-4.12,1.8a10.09,10.09,0,0,0-1.91,3.25,4.28,4.28,0,0,1-4.17,3.16,7.68,7.68,0,0,0-1.66.28,6.24,6.24,0,0,0-5,5.76c0,.14,0,22.86,0,23.16a5.15,5.15,0,0,0,2.61,4.23,6.86,6.86,0,0,0,4.07.87c4.45,0,8.9,0,13.35,0,7.63,0,15.26,0,22.9,0,4.85,0,6.84-2.89,6.86-6.07Q60,33.72,59.91,22.8ZM56.15,43.46c0,2.18-1.31,3.34-3.52,3.34-5.9,0-11.8,0-17.7,0s-11.67,0-17.5,0c-2.64,0-3.68-1-3.68-3.64q0-9.44,0-18.87c0-2.45.92-3.44,3.39-3.67a8.43,8.43,0,0,0,7.71-6c.76-2.14,1.6-2.7,3.85-2.7H41.21c2.11,0,3,.61,3.73,2.61a8.49,8.49,0,0,0,8,6.08,3.17,3.17,0,0,1,3.26,3.42C56.19,30.53,56.2,37,56.15,43.46Z"/><path d="M35,21.92a10,10,0,1,0,10,10A10,10,0,0,0,35,21.92Zm0,16.17a6.24,6.24,0,1,1,6.17-6.25A6.33,6.33,0,0,1,35.05,38.09Z"/><path d="M28.76,63.64h-.13C9.57,62.21,1,55.71,1,49.9c0-2.2,1.14-4.35,3.3-6.22a1.7,1.7,0,1,1,2.22,2.57A5.06,5.06,0,0,0,4.44,49.9c0,4.19,9.14,9.21,24.45,10.35a1.7,1.7,0,0,1-.13,3.39Z"/><path d="M42.55,63.53a1.7,1.7,0,0,1-.16-3.39C53.78,59.1,65.56,55,65.56,49.9c0-1.21-.72-2.45-2.16-3.68a1.7,1.7,0,0,1,2.21-2.58c2.19,1.88,3.35,4,3.35,6.26,0,7.75-13.19,12.43-26.26,13.62Z"/><polygon points="38.28 61.83 26.62 68.16 26.62 55.51 38.28 61.83"/></svg>