<svg id="图层_1" data-name="图层 1" xmlns="http://www.w3.org/2000/svg" viewBox="0 0 70 70"><path d="M26.93,67.49c-6.61-.13-13.12-.76-19.29-3.4-4.36-1.86-5.64-4.19-5-8.82A17.28,17.28,0,0,1,13.27,41.38C23.48,36.78,33.72,36.93,43.4,43c5.33,3.34,7.93,8.46,8.13,14.72.09,2.9-1.84,4.61-4.14,5.85a32.69,32.69,0,0,1-10.73,3.19A55.58,55.58,0,0,1,26.93,67.49Z"/><path d="M26.88,34.67a14.14,14.14,0,1,1,14.25-14A14.21,14.21,0,0,1,26.88,34.67Z"/><path d="M44.45,30.6h-.37c-2.86,0-2.86,0-1.48-2.57A16,16,0,0,0,37,6.85c-1.68-1-1.68-1.14,0-2.24,6-4,14.42-2.43,18.94,3.5A14.27,14.27,0,0,1,54.16,26.9,13.54,13.54,0,0,1,44.45,30.6Z"/><path d="M35.48,36.2a20.11,20.11,0,0,1,9.42-1.34c5.91.32,11.6,1.45,16.38,5.26A16.24,16.24,0,0,1,67.5,52.75a6.29,6.29,0,0,1-2.92,5.64,25.53,25.53,0,0,1-11,3.87c-.08-.19-.2-.33-.16-.4,3-6.16.85-14-5.1-19.07A32.93,32.93,0,0,0,35.48,36.2Z"/></svg>