<?xml version="1.0" standalone="no"?><!DOCTYPE svg PUBLIC "-//W3C//DTD SVG 1.1//EN" "http://www.w3.org/Graphics/SVG/1.1/DTD/svg11.dtd"><svg class="icon" width="200px" height="200.00px" viewBox="0 0 1024 1024" version="1.1" xmlns="http://www.w3.org/2000/svg"><path fill="#333333" d="M788.48 460.8A30.72 30.72 0 0 1 819.2 491.52c0 164.37248-121.0368 299.9296-276.48 315.86304V901.12h102.4a30.72 30.72 0 0 1 0 61.44h-266.24a30.72 30.72 0 0 1 0-61.44h102.4v-93.71648c-84.992-8.72448-159.70304-53.20704-209.96096-118.59968l43.88864-43.90912C360.07936 707.23584 431.59552 747.52 512 747.52c135.4752 0 245.76-114.36032 245.76-256a30.72 30.72 0 0 1 30.72-30.72zM696.32 263.74144V491.52a184.32 184.32 0 0 1-334.56128 106.8032L696.32 263.74144zM235.52 460.8A30.72 30.72 0 0 1 266.24 491.52c0 34.4064 6.51264 67.19488 18.30912 97.13664l-46.55104 46.55104A324.73088 324.73088 0 0 1 204.8 491.52a30.72 30.72 0 0 1 30.72-30.72zM512 61.44a184.40192 184.40192 0 0 1 174.61248 125.15328l-352.6656 352.70656A184.56576 184.56576 0 0 1 327.68 491.52V245.76a184.32 184.32 0 0 1 184.32-184.32z"  /><path fill="#333333" d="M852.316352 107.759008m21.72232 21.72232l0 0q21.72232 21.72232 0 43.444641l-680.632703 680.632703q-21.72232 21.72232-43.444641 0l0 0q-21.72232-21.72232 0-43.444641l680.632703-680.632703q21.72232-21.72232 43.444641 0Z"  /></svg>